<?xml version="1.0" encoding="UTF-8" standalone="no"?>
<svg
   height="128px"
   viewBox="0 0 128 128"
   width="128px"
   version="1.1"
   id="svg17"
   sodipodi:docname="application-vnd.openxmlformats-officedocument.wordprocessingml.document.svg"
   inkscape:version="1.3.2 (091e20ef0f, 2023-11-25)"
   xmlns:inkscape="http://www.inkscape.org/namespaces/inkscape"
   xmlns:sodipodi="http://sodipodi.sourceforge.net/DTD/sodipodi-0.dtd"
   xmlns="http://www.w3.org/2000/svg"
   xmlns:svg="http://www.w3.org/2000/svg">
  <defs
     id="defs17" />
  <sodipodi:namedview
     id="namedview17"
     pagecolor="#ffffff"
     bordercolor="#000000"
     borderopacity="0.25"
     inkscape:showpageshadow="2"
     inkscape:pageopacity="0.0"
     inkscape:pagecheckerboard="0"
     inkscape:deskcolor="#d1d1d1"
     inkscape:zoom="5.6568543"
     inkscape:cx="32.6153"
     inkscape:cy="46.050329"
     inkscape:window-width="1920"
     inkscape:window-height="1011"
     inkscape:window-x="0"
     inkscape:window-y="0"
     inkscape:window-maximized="1"
     inkscape:current-layer="svg17" />
  <radialGradient
     id="a"
     cx="413.639404"
     cy="226.77327"
     gradientTransform="matrix(0.231318 0.400655 0.244759 -0.141312 -89.187302 -67.681122)"
     gradientUnits="userSpaceOnUse"
     r="192">
    <stop
       offset="0"
       stop-color="#50db81"
       id="stop1" />
    <stop
       offset="1"
       stop-color="#8ff0a4"
       stop-opacity="0.003922"
       id="stop2" />
  </radialGradient>
  <radialGradient
     id="b"
     cx="521.890137"
     cy="228.371063"
     gradientTransform="matrix(0.00000003 -0.278432 -0.284052 0 110.869301 251.310974)"
     gradientUnits="userSpaceOnUse"
     r="192">
    <stop
       offset="0"
       stop-color="#4a86cf"
       id="stop3" />
    <stop
       offset="1"
       stop-color="#87bae1"
       stop-opacity="0"
       id="stop4" />
  </radialGradient>
  <path
     d="m 28 8 h 50 l 30.042969 29.917969 v 74.058593 c 0 4.433594 -3.609375 8.023438 -8.042969 8.023438 h -72 c -4.433594 0 -8 -3.566406 -8 -8 v -96 c 0 -4.433594 3.566406 -8 8 -8 z m 0 0"
     fill="#f6f5f4"
     id="path4" />
  <g
     fill="#deddda"
     id="g15">
    <path
       d="m 78 8 v 22 c 0 4.433594 3.609375 7.921875 8.042969 7.921875 l 22 -0.003906 z m 0 0"
       id="path5" />
    <path
       d="m 34 44 h 60 c 1.105469 0 2 0.894531 2 2 s -0.894531 2 -2 2 h -60 c -1.105469 0 -2 -0.894531 -2 -2 s 0.894531 -2 2 -2 z m 0 0"
       id="path13" />
    <path
       d="m 34 36 h 36 c 1.105469 0 2 0.59375 2 1.324219 v 1.351562 c 0 0.730469 -0.894531 1.324219 -2 1.324219 h -36 c -1.105469 0 -2 -0.59375 -2 -1.324219 v -1.351562 c 0 -0.730469 0.894531 -1.324219 2 -1.324219 z m 0 0"
       id="path14" />
    <path
       d="m 34 28 h 36 c 1.105469 0 2 0.59375 2 1.324219 v 1.351562 c 0 0.730469 -0.894531 1.324219 -2 1.324219 h -36 c -1.105469 0 -2 -0.59375 -2 -1.324219 v -1.351562 c 0 -0.730469 0.894531 -1.324219 2 -1.324219 z m 0 0"
       id="path15" />
  </g>
  <rect
     style="fill:#235398;fill-opacity:1;stroke:none;stroke-width:0.570617;stroke-opacity:1"
     id="rect19"
     width="62.789299"
     height="46.062962"
     x="33.808136"
     y="56.031811"
     ry="4.1646104" />
  <path
     style="font-size:24px;font-family:Hack;-inkscape-font-specification:Hack;fill:#ffffff;stroke-width:0.507"
     d="m 37.218407,70.303528 h 3.550781 q 4.007812,0 5.90625,2.132812 1.898437,2.132813 1.898437,6.632813 0,4.464844 -1.898437,6.597656 -1.898438,2.132813 -5.90625,2.132813 h -3.550781 z m 3.503906,15.550781 q 3,0 4.171875,-1.476562 1.183594,-1.464844 1.183594,-5.332032 0,-3.878906 -1.171875,-5.332031 -0.597657,-0.75 -1.664063,-1.101562 -1.054687,-0.363282 -2.519531,-0.363282 h -1.125 v 13.605469 z m 16.558594,2.285156 q -2.964844,0 -4.40625,-2.238281 -1.441407,-2.226562 -1.441407,-6.832031 0,-4.605469 1.453125,-6.832031 1.464844,-2.25 4.394532,-2.25 1.441406,0 2.554687,0.539062 1.113281,0.539063 1.863281,1.710938 1.441407,2.25 1.441407,6.832031 0,4.570312 -1.441407,6.820312 -0.75,1.171875 -1.863281,1.710938 -1.113281,0.539062 -2.554687,0.539062 z m 0,-1.921875 q 1.804687,0 2.601562,-1.652343 0.785156,-1.605469 0.785156,-5.496094 0,-3.890625 -0.785156,-5.507813 -0.796875,-1.652343 -2.601562,-1.652343 -1.78125,0 -2.578125,1.652343 -0.796875,1.6875 -0.796875,5.507813 0,3.808594 0.796875,5.496094 0.796875,1.652343 2.578125,1.652343 z m 15.925781,1.921875 q -1.640625,0 -2.964844,-0.585937 -1.3125,-0.585938 -2.25,-1.792969 -1.851562,-2.402344 -1.851562,-6.679687 0,-2.859375 0.84375,-4.886719 0.84375,-2.039063 2.425781,-3.117188 1.59375,-1.089843 3.796875,-1.089843 1.136719,0 2.039062,0.222656 0.914063,0.222656 1.839844,0.738281 v 2.425781 q -0.855469,-0.714843 -1.863281,-1.089843 -1.019531,-0.375 -2.027344,-0.375 -2.285156,0 -3.433594,1.78125 -1.148437,1.78125 -1.148437,5.378906 0,7.148437 4.605469,7.148437 1.007812,0 2.027343,-0.375 0.984375,-0.375 1.839844,-1.089843 v 2.425781 q -0.925781,0.480469 -1.851562,0.726562 -0.9375,0.234375 -2.027344,0.234375 z m 11.824219,-9.609375 -5.0625,-8.226562 h 2.542968 l 3.84375,6.597656 3.914063,-6.597656 h 2.542969 l -5.238282,8.226562 5.613282,9.269532 h -2.542969 l -4.289063,-7.535157 -4.628906,7.535157 h -2.554687 z"
     id="text19"
     aria-label="DOCX" />
</svg>
