<?xml version="1.0" encoding="UTF-8" standalone="no"?>
<svg
   height="128px"
   viewBox="0 0 128 128"
   width="128px"
   version="1.1"
   id="svg17"
   sodipodi:docname="application-pdf.svg"
   inkscape:version="1.3.2 (091e20ef0f, 2023-11-25)"
   xmlns:inkscape="http://www.inkscape.org/namespaces/inkscape"
   xmlns:sodipodi="http://sodipodi.sourceforge.net/DTD/sodipodi-0.dtd"
   xmlns="http://www.w3.org/2000/svg"
   xmlns:svg="http://www.w3.org/2000/svg">
  <defs
     id="defs17" />
  <sodipodi:namedview
     id="namedview17"
     pagecolor="#ffffff"
     bordercolor="#000000"
     borderopacity="0.25"
     inkscape:showpageshadow="2"
     inkscape:pageopacity="0.0"
     inkscape:pagecheckerboard="0"
     inkscape:deskcolor="#d1d1d1"
     inkscape:zoom="5.6568543"
     inkscape:cx="32.6153"
     inkscape:cy="46.050329"
     inkscape:window-width="1920"
     inkscape:window-height="1011"
     inkscape:window-x="0"
     inkscape:window-y="0"
     inkscape:window-maximized="1"
     inkscape:current-layer="svg17" />
  <radialGradient
     id="a"
     cx="413.639404"
     cy="226.77327"
     gradientTransform="matrix(0.231318 0.400655 0.244759 -0.141312 -89.187302 -67.681122)"
     gradientUnits="userSpaceOnUse"
     r="192">
    <stop
       offset="0"
       stop-color="#50db81"
       id="stop1" />
    <stop
       offset="1"
       stop-color="#8ff0a4"
       stop-opacity="0.003922"
       id="stop2" />
  </radialGradient>
  <radialGradient
     id="b"
     cx="521.890137"
     cy="228.371063"
     gradientTransform="matrix(0.00000003 -0.278432 -0.284052 0 110.869301 251.310974)"
     gradientUnits="userSpaceOnUse"
     r="192">
    <stop
       offset="0"
       stop-color="#4a86cf"
       id="stop3" />
    <stop
       offset="1"
       stop-color="#87bae1"
       stop-opacity="0"
       id="stop4" />
  </radialGradient>
  <path
     d="m 28 8 h 50 l 30.042969 29.917969 v 74.058593 c 0 4.433594 -3.609375 8.023438 -8.042969 8.023438 h -72 c -4.433594 0 -8 -3.566406 -8 -8 v -96 c 0 -4.433594 3.566406 -8 8 -8 z m 0 0"
     fill="#f6f5f4"
     id="path4" />
  <g
     fill="#deddda"
     id="g15">
    <path
       d="m 78 8 v 22 c 0 4.433594 3.609375 7.921875 8.042969 7.921875 l 22 -0.003906 z m 0 0"
       id="path5" />
    <path
       d="m 34 44 h 60 c 1.105469 0 2 0.894531 2 2 s -0.894531 2 -2 2 h -60 c -1.105469 0 -2 -0.894531 -2 -2 s 0.894531 -2 2 -2 z m 0 0"
       id="path13" />
    <path
       d="m 34 36 h 36 c 1.105469 0 2 0.59375 2 1.324219 v 1.351562 c 0 0.730469 -0.894531 1.324219 -2 1.324219 h -36 c -1.105469 0 -2 -0.59375 -2 -1.324219 v -1.351562 c 0 -0.730469 0.894531 -1.324219 2 -1.324219 z m 0 0"
       id="path14" />
    <path
       d="m 34 28 h 36 c 1.105469 0 2 0.59375 2 1.324219 v 1.351562 c 0 0.730469 -0.894531 1.324219 -2 1.324219 h -36 c -1.105469 0 -2 -0.59375 -2 -1.324219 v -1.351562 c 0 -0.730469 0.894531 -1.324219 2 -1.324219 z m 0 0"
       id="path15" />
  </g>
  <rect
     style="fill:#b80000;fill-opacity:1;stroke:#b80000;stroke-width:0.570617;stroke-opacity:1"
     id="rect19"
     width="62.789299"
     height="46.062962"
     x="32.925396"
     y="56.031811"
     ry="4.1646104" />
  <path
     style="font-size:26.6667px;font-family:Hack;-inkscape-font-specification:Hack;fill:#ffffff;stroke-width:0.507"
     d="m 42.145539,69.343227 h 5.67709 q 3.229171,0 4.934902,1.471356 0.872397,0.76823 1.276043,1.875002 0.403647,1.093752 0.403647,2.473962 0,2.864587 -1.666669,4.335943 -1.653648,1.471356 -4.947923,1.471356 H 44.77575 v 7.81251 h -2.630211 z m 5.67709,9.466158 q 0.976564,0 1.67969,-0.260417 0.703126,-0.260417 1.171876,-0.703126 1.015627,-0.963543 1.015627,-2.695316 0,-1.731773 -1.015627,-2.695316 -0.989584,-0.950522 -2.851566,-0.950522 H 44.77575 v 7.304697 z m 9.921888,-9.466158 h 3.945318 q 4.45313,0 6.562508,2.369795 2.109378,2.369794 2.109378,7.369801 0,4.960943 -2.109378,7.330738 -2.109378,2.369795 -6.562508,2.369795 h -3.945318 z m 3.893234,17.278668 q 3.333338,0 4.635423,-1.640627 1.315106,-1.627607 1.315106,-5.924487 0,-4.309901 -1.302085,-5.924487 -0.664064,-0.833334 -1.848961,-1.22396 -1.171876,-0.403646 -2.799483,-0.403646 H 60.38775 V 86.621895 Z M 75.049227,69.343227 h 11.445327 v 2.213544 H 77.69246 v 5.989591 h 7.981781 v 2.213545 H 77.69246 v 9.023449 h -2.643233 z"
     id="text19"
     aria-label="PDF" />
</svg>
