<?xml version="1.0" encoding="UTF-8" standalone="no"?>
<svg
   height="128px"
   viewBox="0 0 128 128"
   width="128px"
   version="1.1"
   id="svg14"
   sodipodi:docname="text-x-php.svg"
   inkscape:version="1.3.2 (091e20ef0f, 2023-11-25)"
   xmlns:inkscape="http://www.inkscape.org/namespaces/inkscape"
   xmlns:sodipodi="http://sodipodi.sourceforge.net/DTD/sodipodi-0.dtd"
   xmlns="http://www.w3.org/2000/svg"
   xmlns:svg="http://www.w3.org/2000/svg">
  <defs
     id="defs14" />
  <sodipodi:namedview
     id="namedview14"
     pagecolor="#ffffff"
     bordercolor="#000000"
     borderopacity="0.25"
     inkscape:showpageshadow="2"
     inkscape:pageopacity="0.0"
     inkscape:pagecheckerboard="0"
     inkscape:deskcolor="#d1d1d1"
     inkscape:zoom="6.2890625"
     inkscape:cx="64.954037"
     inkscape:cy="36.809938"
     inkscape:window-width="1920"
     inkscape:window-height="1011"
     inkscape:window-x="0"
     inkscape:window-y="0"
     inkscape:window-maximized="1"
     inkscape:current-layer="g15" />
  <clipPath
     id="a">
    <path
       d="m 33 46 h 61 v 61 h -61 z m 0 0"
       id="path1" />
  </clipPath>
  <clipPath
     id="b">
    <path
       d="m 66.675781 47.21875 l 26.046875 26.046875 c 1.539063 1.539063 1.539063 4.039063 0 5.578125 l -26.046875 26.046875 c -1.539062 1.539063 -4.035156 1.539063 -5.574219 0 l -26.046874 -26.046875 c -1.542969 -1.539062 -1.542969 -4.039062 0 -5.578125 l 26.046874 -26.046875 c 1.539063 -1.539062 4.035157 -1.539062 5.574219 0 z m 0 0"
       id="path2" />
  </clipPath>
  <clipPath
     id="c">
    <path
       d="m 56 60 h 38 v 47 h -38 z m 0 0"
       id="path3" />
  </clipPath>
  <clipPath
     id="d">
    <path
       d="m 66.675781 47.21875 l 26.046875 26.046875 c 1.539063 1.539063 1.539063 4.039063 0 5.578125 l -26.046875 26.046875 c -1.539062 1.539063 -4.035156 1.539063 -5.574219 0 l -26.046874 -26.046875 c -1.542969 -1.539062 -1.542969 -4.039062 0 -5.578125 l 26.046874 -26.046875 c 1.539063 -1.539062 4.035157 -1.539062 5.574219 0 z m 0 0"
       id="path4" />
  </clipPath>
  <clipPath
     id="e">
    <path
       d="m 33 46 h 30 v 45 h -30 z m 0 0"
       id="path5" />
  </clipPath>
  <clipPath
     id="f">
    <path
       d="m 66.675781 47.21875 l 26.046875 26.046875 c 1.539063 1.539063 1.539063 4.039063 0 5.578125 l -26.046875 26.046875 c -1.539062 1.539063 -4.035156 1.539063 -5.574219 0 l -26.046874 -26.046875 c -1.542969 -1.539062 -1.542969 -4.039062 0 -5.578125 l 26.046874 -26.046875 c 1.539063 -1.539062 4.035157 -1.539062 5.574219 0 z m 0 0"
       id="path6" />
  </clipPath>
  <path
     d="m 28 8 h 50 l 30.042969 29.917969 v 74.058593 c 0 4.433594 -3.609375 8.023438 -8.042969 8.023438 h -72 c -4.433594 0 -8 -3.566406 -8 -8 v -96 c 0 -4.433594 3.566406 -8 8 -8 z m 0 0"
     fill="#f6f5f4"
     id="path7" />
  <path
     d="m 78 8 v 22 c 0 4.433594 3.609375 7.921875 8.042969 7.921875 l 22 -0.003906 z m 0 0"
     fill="#deddda"
     id="path8" />
  <g
     clip-path="url(#a)"
     id="g10">
    <g
       clip-path="url(#b)"
       id="g9">
      <path
         d="m 64.640625 45.183594 l 30.117187 30.117187 c 0.417969 0.417969 0.417969 1.089844 0 1.507813 l -30.117187 30.117187 c -0.414063 0.414063 -1.089844 0.414063 -1.503906 0 l -30.117188 -30.117187 c -0.417969 -0.417969 -0.417969 -1.089844 0 -1.507813 l 30.117188 -30.117187 c 0.414062 -0.414063 1.089843 -0.414063 1.503906 0 z m 0 0"
         fill="#3584e4"
         id="path9" />
    </g>
  </g>
  <g
     clip-path="url(#c)"
     id="g12">
    <g
       clip-path="url(#d)"
       id="g11">
      <path
         d="m 82.730469 60.519531 l -1.21875 3.675781 c -0.058594 -0.003906 -0.117188 -0.007812 -0.175781 -0.011718 c -0.984376 0.007812 -1.972657 0.085937 -2.949219 0.230468 l -1.699219 -3.511718 c -1.230469 0.234375 -2.441406 0.5625 -3.621094 0.980468 l 0.28125 3.871094 c -0.96875 0.394532 -1.902344 0.863282 -2.800781 1.394532 l -2.921875 -2.601563 c -1.046875 0.691406 -2.035156 1.460937 -2.964844 2.300781 l 1.734375 3.460938 c -0.738281 0.738281 -1.425781 1.527344 -2.046875 2.367187 l -3.707031 -1.289062 c -0.695313 1.042969 -1.3125 2.132812 -1.847656 3.265625 l 2.921875 2.527344 c -0.398438 0.964843 -0.726563 1.960937 -0.984375 2.972656 l -3.90625 0.230468 c -0.25 1.226563 -0.40625 2.472657 -0.46875 3.722657 l 3.675781 1.21875 c -0.003906 0.058593 -0.003906 0.117187 -0.007812 0.175781 c 0.007812 0.984375 0.085937 1.972656 0.226562 2.949219 l -3.511719 1.699219 c 0.238281 1.230468 0.566407 2.441406 0.984375 3.621093 l 3.871094 -0.28125 c 0.394531 0.96875 0.859375 1.902344 1.394531 2.800781 l -2.601562 2.921876 c 0.691406 1.046874 1.460937 2.035156 2.300781 2.964843 l 3.457031 -1.734375 c 0.738281 0.738282 1.53125 1.425782 2.367188 2.046875 l -1.285157 3.707031 c 1.039063 0.695313 2.128907 1.3125 3.261719 1.847657 l 2.527344 -2.921875 c 0.96875 0.398437 1.960937 0.726562 2.976563 0.984375 l 0.226562 3.90625 c 1.230469 0.25 2.472656 0.40625 3.722656 0.46875 l 1.21875 -3.675781 c 0.058594 0 0.117188 0.003906 0.175782 0.007812 c 0.988281 -0.007812 1.972656 -0.085938 2.949218 -0.226562 l 1.699219 3.511718 c 1.230469 -0.238281 2.441406 -0.566406 3.625 -0.984375 l -0.28125 -3.871093 c 0.964844 -0.394532 1.902344 -0.859376 2.800781 -1.394532 l 2.921875 2.601563 c 1.042969 -0.691407 2.035157 -1.460938 2.964844 -2.300781 l -1.738281 -3.460938 c 0.742187 -0.734375 1.425781 -1.527344 2.050781 -2.367188 l 3.703125 1.289063 c 0.699219 -1.039063 1.316406 -2.132813 1.851562 -3.261719 l -2.925781 -2.527344 c 0.402344 -0.96875 0.730469 -1.960937 0.984375 -2.976562 l 3.910156 -0.226562 c 0.246094 -1.230469 0.402344 -2.472657 0.464844 -3.722657 l -3.675781 -1.21875 c 0.003906 -0.058593 0.007813 -0.117187 0.007813 -0.175781 c -0.003907 -0.988281 -0.082032 -1.972656 -0.226563 -2.949219 l 3.511719 -1.699219 c -0.234375 -1.230468 -0.5625 -2.441406 -0.980469 -3.625 l -3.871094 0.28125 c -0.394531 -0.964843 -0.863281 -1.902343 -1.394531 -2.800781 l 2.601562 -2.921875 c -0.691406 -1.042968 -1.460937 -2.035156 -2.300781 -2.964844 l -3.460937 1.738282 c -0.738282 -0.742188 -1.527344 -1.425782 -2.367188 -2.050782 l 1.289063 -3.703124 c -1.042969 -0.699219 -2.132813 -1.316407 -3.265625 -1.851563 l -2.527344 2.925781 c -0.964844 -0.402344 -1.960938 -0.730468 -2.972656 -0.984375 l -0.230469 -3.910156 c -1.226563 -0.25 -2.472656 -0.402344 -3.722656 -0.464844 z m -1.394531 9.339844 c 8.636718 0 15.640624 7.003906 15.640624 15.640625 s -7.003906 15.636719 -15.640624 15.636719 c -8.636719 0 -15.636719 -7 -15.636719 -15.636719 s 7 -15.640625 15.636719 -15.640625 z m 0 0"
         fill="#98c1f1"
         id="path10" />
    </g>
  </g>
  <g
     clip-path="url(#e)"
     id="g14">
    <g
       clip-path="url(#f)"
       id="g13">
      <path
         d="m 38.71875 40.726562 l -1.214844 3.675782 c -0.058594 -0.003906 -0.117187 -0.007813 -0.175781 -0.011719 c -0.988281 0.007813 -1.972656 0.085937 -2.949219 0.230469 l -1.703125 -3.511719 c -1.230469 0.234375 -2.441406 0.5625 -3.621093 0.980469 l 0.28125 3.871094 c -0.964844 0.394531 -1.902344 0.863281 -2.800782 1.394531 l -2.921875 -2.601563 c -1.042969 0.691406 -2.035156 1.460938 -2.964843 2.300782 l 1.738281 3.460937 c -0.742188 0.738281 -1.425781 1.527344 -2.050781 2.367187 l -3.703126 -1.289062 c -0.699218 1.042969 -1.316406 2.132812 -1.851562 3.265625 l 2.925781 2.527344 c -0.402343 0.964843 -0.730469 1.960937 -0.984375 2.972656 l -3.910156 0.230469 c -0.25 1.226562 -0.402344 2.472656 -0.464844 3.722656 l 3.675782 1.21875 c -0.003907 0.058594 -0.007813 0.117188 -0.011719 0.175781 c 0.007812 0.984375 0.085937 1.972657 0.230469 2.945313 l -3.511719 1.703125 c 0.234375 1.230469 0.5625 2.441406 0.980469 3.621093 l 3.871093 -0.28125 c 0.394531 0.96875 0.859375 1.902344 1.394531 2.800782 l -2.601562 2.921875 c 0.691406 1.046875 1.460938 2.035156 2.300781 2.964843 l 3.460938 -1.734374 c 0.738281 0.738281 1.527343 1.421874 2.367187 2.046874 l -1.289062 3.703126 c 1.042968 0.699218 2.132812 1.316406 3.265625 1.851562 l 2.527343 -2.921875 c 0.964844 0.398437 1.960938 0.726563 2.972657 0.980469 l 0.230469 3.910156 c 1.226562 0.25 2.46875 0.40625 3.722656 0.46875 l 1.21875 -3.675781 c 0.058594 0 0.117187 0.003906 0.175781 0.007812 c 0.984375 -0.007812 1.96875 -0.085937 2.945313 -0.230469 l 1.703124 3.511719 c 1.230469 -0.234375 2.441407 -0.5625 3.621094 -0.980469 l -0.28125 -3.871093 c 0.964844 -0.394531 1.902344 -0.859375 2.800782 -1.394531 l 2.921874 2.601562 c 1.046876 -0.691406 2.035157 -1.460938 2.964844 -2.300781 l -1.738281 -3.460938 c 0.742187 -0.734375 1.425781 -1.527343 2.050781 -2.367187 l 3.703125 1.289062 c 0.699219 -1.039062 1.316407 -2.132812 1.851563 -3.265625 l -2.921875 -2.523437 c 0.398437 -0.96875 0.726562 -1.960938 0.980469 -2.976563 l 3.910156 -0.226562 c 0.25 -1.230469 0.40625 -2.472657 0.464844 -3.722657 l -3.671876 -1.21875 c 0 -0.058593 0.003907 -0.117187 0.007813 -0.175781 c -0.007813 -0.988281 -0.085937 -1.972656 -0.230469 -2.949219 l 3.511719 -1.703124 c -0.234375 -1.230469 -0.5625 -2.441407 -0.980469 -3.621094 l -3.871094 0.28125 c -0.394531 -0.964844 -0.859374 -1.902344 -1.394531 -2.800782 l 2.601563 -2.921874 c -0.691406 -1.042969 -1.460938 -2.035157 -2.300782 -2.964844 l -3.460937 1.738281 c -0.738281 -0.742187 -1.527344 -1.425781 -2.367187 -2.050781 l 1.289062 -3.703125 c -1.039062 -0.699219 -2.132812 -1.316407 -3.265625 -1.851563 l -2.527344 2.925782 c -0.964843 -0.402344 -1.957031 -0.730469 -2.972656 -0.984376 l -0.226563 -3.910156 c -1.230468 -0.25 -2.472656 -0.402344 -3.726562 -0.464844 z m 0 0"
         fill="#1a5fb4"
         id="path12" />
    </g>
  </g>
  <path
     d="m 34.335938 74.457031 c -0.621094 1.535157 -0.308594 3.359375 0.941406 4.609375 l 25.601562 25.601563 c 1.667969 1.667969 4.351563 1.667969 6.019532 0 l 25.601562 -25.601563 c 1.25 -1.25 1.5625 -3.074218 0.941406 -4.609375 c -0.210937 0.515625 -0.523437 0.996094 -0.941406 1.414063 l -25.601562 25.601562 c -1.667969 1.667969 -4.351563 1.667969 -6.019532 0 l -25.601562 -25.601562 c -0.417969 -0.417969 -0.730469 -0.898438 -0.941406 -1.414063 z m 0 0"
     fill="#1a5fb4"
     fill-opacity="0.501961"
     id="path14" />
  <circle
     style="fill:#4f5b93;fill-opacity:1"
     id="path15"
     cx="64.021484"
     cy="76.808594"
     r="32.614906" />
  <g
     id="g15"
     transform="translate(0.10955569,3.7186538)">
    <path
       d="m 43.464926,66.019284 h 7.20508 c 2.114755,0.01775 3.647178,0.627477 4.597271,1.828154 0.950092,1.200678 1.263577,2.84064 0.940962,4.919887 -0.125293,0.950092 -0.40327,1.881923 -0.833424,2.796001 -0.4124,0.914077 -0.9856,1.73837 -1.720616,2.473385 -0.896323,0.931831 -1.855039,1.523293 -2.876655,1.774385 -1.021615,0.251093 -2.079246,0.376385 -3.172385,0.376385 h -3.226155 l -1.021616,5.108079 h -3.736963 l 3.844501,-19.276276 v 0 m 3.145502,3.064847 -1.613078,8.065388 c 0.107539,0.01775 0.215077,0.02688 0.322616,0.02688 0.125292,0 0.251092,0 0.376384,0 1.720616,0.01775 3.154632,-0.152177 4.30154,-0.510808 1.146909,-0.376384 1.917939,-1.6846 2.312078,-3.925155 0.322616,-1.881924 0,-2.966439 -0.967846,-3.25304 -0.950093,-0.2866 -2.14164,-0.421023 -3.575656,-0.403269 -0.215077,0.01775 -0.421023,0.02688 -0.618346,0.02688 -0.179062,0 -0.367254,0 -0.564577,0 l 0.02689,-0.02688"
       id="path1-3"
       style="stroke-width:0.507257;fill:#ffffff;fill-opacity:1" />
    <path
       d="m 60.46514,60.88432 h 3.710078 l -1.0485,5.134964 h 3.333694 c 1.828154,0.03602 3.190139,0.4124 4.086463,1.129154 0.914077,0.716754 1.182923,2.079247 0.806538,4.086463 l -1.80127,8.95258 h -3.763847 l 1.720616,-8.549311 c 0.179062,-0.896323 0.125292,-1.532423 -0.161308,-1.908808 -0.2866,-0.376385 -0.904946,-0.564577 -1.855039,-0.564577 l -2.984193,-0.02688 -2.20454,11.049581 H 56.593754 L 60.46514,60.884325 v 0"
       id="path2-6"
       style="stroke-width:0.507257;fill:#ffffff;fill-opacity:1" />
    <path
       d="m 75.337411,66.019284 h 7.20508 c 2.114754,0.01775 3.647178,0.627477 4.59727,1.828154 0.950093,1.200678 1.263578,2.84064 0.940962,4.919887 -0.125292,0.950092 -0.403269,1.881923 -0.833423,2.796001 -0.4124,0.914077 -0.985601,1.73837 -1.720616,2.473385 -0.896323,0.931831 -1.855039,1.523293 -2.876655,1.774385 -1.021616,0.251093 -2.079247,0.376385 -3.172386,0.376385 h -3.226155 l -1.021616,5.108079 h -3.736963 l 3.844502,-19.276276 v 0 m 3.145501,3.064847 -1.613077,8.065388 c 0.107538,0.01775 0.215077,0.02688 0.322615,0.02688 0.125293,0 0.251092,0 0.376385,0 1.720616,0.01775 3.154632,-0.152177 4.30154,-0.510808 1.146908,-0.376384 1.917939,-1.6846 2.312078,-3.925155 0.322615,-1.881924 0,-2.966439 -0.967847,-3.25304 -0.950092,-0.2866 -2.141639,-0.421023 -3.575655,-0.403269 -0.215077,0.01775 -0.421023,0.02688 -0.618346,0.02688 -0.179062,0 -0.367254,0 -0.564577,0 l 0.02688,-0.02688"
       id="path3-7"
       style="stroke-width:0.507;stroke-dasharray:none;fill:#ffffff;fill-opacity:1" />
  </g>
</svg>
